<svg xmlns="http://www.w3.org/2000/svg" width="16.463" height="16.371"><path data-name="Path 56" d="M15.97.026L.36 6.158a.361.361 0 00-.017.665l3.45 1.562a.361.361 0 01.2.221l1.481 4.712a.361.361 0 00.562.18l2.572-1.94a.361.361 0 01.419-.011l4.322 2.911a.361.361 0 00.557-.234l2.55-13.8a.361.361 0 00-.486-.398zM6.511 9.058l-.466 2.647-1.2-3.79L13.086 2.8zm-4.024.691a.34.34 0 00-.481 0L.099 11.651a.34.34 0 00.481.481l1.906-1.906a.34.34 0 00.001-.482zm.978 4.14L1.559 15.79a.34.34 0 00.481.481l1.906-1.906a.34.34 0 00-.481-.481z" fill="#c41229"/></svg>