<svg xmlns="http://www.w3.org/2000/svg" width="35.36" height="14.779"><g data-name="Group 5775"><path data-name="Path 5841" d="M29.883 4.456a.41.41 0 00-.259-.092h-2.36a.41.41 0 00-.41.41v2.039a.41.41 0 00.41.41h4.313a.411.411 0 00.361-.605 8.944 8.944 0 00-2.055-2.162zm-2.208 1.948V5.186h1.8a11.687 11.687 0 011.3 1.218z"/><path data-name="Path 5842" d="M30.268 3.608a1.268 1.268 0 00-.718-.223h-2.879V.41a.41.41 0 00-.41-.41H10.607a.41.41 0 00-.41.41v6.179a.41.41 0 000 .448v5.446a.41.41 0 00.41.41h3.2a2.395 2.395 0 004.68 0h8.663a2.395 2.395 0 004.68 0h2.27a1.27 1.27 0 001.264-1.254V9.602a1.255 1.255 0 00-.214-.7 19.322 19.322 0 00-4.882-5.294zM25.85.821v5.583H11.018V.821zm-14.832 6.4H25.85v4.849h-7.325v-.026c0-.009 0-.033-.007-.049s-.007-.044-.011-.066l-.01-.048-.015-.066c0-.022-.007-.03-.011-.046l-.019-.066-.013-.043-.023-.068-.016-.032a1.172 1.172 0 00-.03-.075l-.012-.03-.044-.1q-.025-.052-.053-.1l-.007-.012a1.489 1.489 0 00-.048-.082l-.017-.027-.043-.067-.021-.03-.043-.061-.024-.031-.044-.057-.026-.031-.046-.053-.028-.03-.048-.051-.029-.029-.053-.05-.029-.026-.055-.058-.027-.023-.065-.051-.023-.017-.082-.059h-.007q-.094-.063-.194-.118l-.022-.011-.077-.039-.031-.015-.071-.032-.036-.015-.069-.027-.039-.014-.068-.023-.041-.012-.069-.02-.041-.011-.071-.016-.041-.009-.074-.013-.048-.009-.082-.01h-.036l-.094-.007H16l-.094.007h-.036l-.082.01-.04.007-.074.013-.041.009-.071.016-.041.011-.069.02-.041.012-.068.023-.039.014-.068.027-.036.015-.071.032-.031.015-.077.039-.022.011q-.1.054-.194.118h-.007l-.082.059-.023.017-.065.051-.027.023-.057.049-.029.026-.053.05-.029.029-.048.051-.028.03-.046.053-.026.031-.044.057-.024.031-.043.061-.021.03a1.53 1.53 0 00-.043.067l-.017.027-.048.082-.007.013-.053.1q-.023.048-.044.1l-.012.03-.03.075-.014.039-.023.068-.013.043a1.636 1.636 0 00-.019.066l-.011.046c0 .016-.011.044-.015.066l-.01.048a1.506 1.506 0 00-.011.066l-.007.049a.09.09 0 000 .026h-2.758zm5.132 6.742a1.574 1.574 0 111.574-1.574 1.574 1.574 0 01-1.574 1.574zm13.341 0a1.574 1.574 0 111.565-1.574v.076a.409.409 0 000 .065 1.575 1.575 0 01-1.565 1.433zm5.051-2.327a.445.445 0 01-.443.438h-2.235A2.4 2.4 0 0029.6 10h-.114a2.4 2.4 0 00-2.373 2.073h-.437V4.206h2.874a.451.451 0 01.254.082 18.57 18.57 0 014.663 5.073.436.436 0 01.074.246zM7.717 7.73H1.888a.41.41 0 000 .821h5.829a.41.41 0 000-.821zm0 3.948H1.888a.41.41 0 000 .821h5.829a.41.41 0 000-.821zm-1.642-1.364a.41.41 0 00-.41-.411H.41a.41.41 0 100 .821h5.254a.41.41 0 00.411-.41z"/></g></svg>