<svg xmlns="http://www.w3.org/2000/svg" width="21.548" height="21.666" viewBox="0 0 21.548 21.666">
  <path id="Path_69" data-name="Path 69" d="M16.766,13.539a6.464,6.464,0,1,0-7.994,0,10.774,10.774,0,0,0-6.7,8.813,1.084,1.084,0,1,0,2.155.237,8.619,8.619,0,0,1,17.131,0,1.077,1.077,0,0,0,1.077.959h.119a1.077,1.077,0,0,0,.948-1.185,10.774,10.774,0,0,0-6.734-8.824Zm-4-.765a4.31,4.31,0,1,1,4.31-4.31A4.31,4.31,0,0,1,12.769,12.774Z" transform="translate(-2.013 -1.945)" stroke="#000" stroke-width="0.1"/>
</svg>
