<svg xmlns="http://www.w3.org/2000/svg" width="16.463" height="16.371" viewBox="0 0 16.463 16.371">
  <path id="Path_56" data-name="Path 56" d="M16.777.968,1.167,7.1a.361.361,0,0,0-.017.665L4.6,9.327a.361.361,0,0,1,.2.221l1.481,4.712a.361.361,0,0,0,.562.18L9.415,12.5a.361.361,0,0,1,.419-.011L14.156,15.4a.361.361,0,0,0,.557-.234l2.55-13.8A.361.361,0,0,0,16.777.968ZM7.318,10l-.466,2.647-1.2-3.79,8.241-5.115Zm-4.024.691a.34.34,0,0,0-.481,0L.906,12.593a.34.34,0,0,0,.481.481l1.906-1.906A.34.34,0,0,0,3.294,10.686Zm.978,4.14L2.366,16.732a.34.34,0,0,0,.481.481l1.906-1.906a.34.34,0,0,0-.481-.481Z" transform="translate(-0.807 -0.942)" fill="#c41229"/>
</svg>
