<svg xmlns="http://www.w3.org/2000/svg" width="35.36" height="14.779" viewBox="0 0 35.36 14.779">
  <g id="Group_5775" data-name="Group 5775" transform="translate(-41 -165.94)">
    <path id="Path_5841" data-name="Path 5841" d="M371.129,219.182a.41.41,0,0,0-.259-.092h-2.36a.41.41,0,0,0-.41.41v2.039a.41.41,0,0,0,.41.41h4.313a.411.411,0,0,0,.361-.605A8.944,8.944,0,0,0,371.129,219.182Zm-2.208,1.948v-1.218h1.8a11.687,11.687,0,0,1,1.3,1.218Z" transform="translate(-300.246 -48.786)"/>
    <path id="Path_5842" data-name="Path 5842" d="M71.268,169.548a1.268,1.268,0,0,0-.718-.223H67.671V166.35a.41.41,0,0,0-.41-.41H51.607a.41.41,0,0,0-.41.41v6.179a.41.41,0,0,0,0,.448v5.446a.41.41,0,0,0,.41.41h3.2a2.395,2.395,0,0,0,4.68,0H68.15a2.395,2.395,0,0,0,4.68,0H75.1a1.27,1.27,0,0,0,1.264-1.254v-2.037a1.255,1.255,0,0,0-.214-.7A19.322,19.322,0,0,0,71.268,169.548Zm-4.418-2.787v5.583H52.018v-5.583Zm-14.832,6.4H66.85v4.849H59.525v-.026c0-.009,0-.033-.007-.049s-.007-.044-.011-.066-.007-.032-.01-.048l-.015-.066c0-.022-.007-.03-.011-.046s-.012-.044-.019-.066l-.013-.043c-.007-.023-.015-.045-.023-.068L59.4,177.5c-.009-.025-.019-.05-.03-.075l-.012-.03q-.021-.049-.044-.1v0q-.025-.052-.053-.1l-.007-.012c-.016-.029-.032-.057-.048-.082l-.017-.027c-.014-.022-.028-.045-.043-.067l-.021-.03-.043-.061-.024-.031-.044-.057-.026-.031-.046-.053-.028-.03-.048-.051-.029-.029-.053-.05-.029-.026L58.7,176.5l-.027-.023-.065-.051-.023-.017-.082-.059-.007,0q-.094-.063-.194-.118l-.022-.011-.077-.039-.031-.015-.071-.032-.036-.015-.069-.027-.039-.014-.068-.023-.041-.012-.069-.02-.041-.011-.071-.016-.041-.009-.074-.013-.048-.009-.082-.01-.036,0-.094-.007H57l-.094.007-.036,0-.082.01-.04.007-.074.013-.041.009-.071.016-.041.011-.069.02-.041.012-.068.023-.039.014-.068.027-.036.015-.071.032-.031.015-.077.039-.022.011q-.1.054-.194.118l-.007,0-.082.059-.023.017-.065.051-.027.023-.057.049-.029.026-.053.05-.029.029-.048.051-.028.03-.046.053-.026.031-.044.057-.024.031-.043.061-.021.03c-.015.022-.029.044-.043.067l-.017.027-.048.082-.007.013q-.027.05-.053.1v0q-.023.048-.044.1l-.012.03-.03.075-.014.039c-.008.023-.016.045-.023.068l-.013.043c-.007.022-.013.044-.019.066l-.011.046c0,.016-.011.044-.015.066s-.007.032-.01.048-.008.044-.011.066l-.007.049a.09.09,0,0,0,0,.026H52.018Zm5.132,6.742a1.574,1.574,0,1,1,1.574-1.574,1.574,1.574,0,0,1-1.574,1.574Zm13.341,0a1.574,1.574,0,1,1,1.565-1.574v.076a.409.409,0,0,0,0,.065,1.575,1.575,0,0,1-1.565,1.433Zm5.051-2.327a.445.445,0,0,1-.443.438H72.864A2.4,2.4,0,0,0,70.6,175.94h-.114a2.4,2.4,0,0,0-2.373,2.073h-.437v-7.867H70.55a.451.451,0,0,1,.254.082,18.57,18.57,0,0,1,4.663,5.073h0a.436.436,0,0,1,.074.246ZM48.717,173.67H42.888a.41.41,0,0,0,0,.821h5.829a.41.41,0,0,0,0-.821Zm0,3.948H42.888a.41.41,0,0,0,0,.821h5.829a.41.41,0,0,0,0-.821Zm-1.642-1.364a.41.41,0,0,0-.41-.411H41.41a.41.41,0,1,0,0,.821h5.254A.41.41,0,0,0,47.075,176.254Z"/>
  </g>
</svg>
